<?xml version="1.0" standalone="no"?><!DOCTYPE svg PUBLIC "-//W3C//DTD SVG 1.1//EN" "http://www.w3.org/Graphics/SVG/1.1/DTD/svg11.dtd"><svg t="1763030361514" class="icon" viewBox="0 0 1024 1024" version="1.1" xmlns="http://www.w3.org/2000/svg" p-id="10519" xmlns:xlink="http://www.w3.org/1999/xlink" width="200" height="200"><path d="M818.684 550.575L569.144 359.47c-14.594-11.463-23.525 8.664-15.209 25.254l50.377 124.238H229.245c-20.064 0-36.328 16.265-36.328 36.328 0 20.064 16.264 36.329 36.328 36.329h455.642c0.757 0 1.467-0.115 2.207-0.159l66.481-0.265c1.251 0.282 2.53 0.424 3.811 0.424h50.565c16.503-0.002 23.712-20.85 10.733-31.044z" fill="#ffffff" p-id="10520"></path><path d="M509.139 63.716c-247.38 0-447.921 200.541-447.921 447.921s200.541 447.921 447.921 447.921S957.06 759.017 957.06 511.637c-0.001-247.38-200.541-447.921-447.921-447.921z m0 867.762c-231.872 0-419.84-187.969-419.84-419.84S277.267 91.796 509.139 91.796 928.98 279.766 928.98 511.637 741.01 931.478 509.139 931.478z" fill="#ffffff" p-id="10521"></path></svg>