<?xml version="1.0" standalone="no"?><!DOCTYPE svg PUBLIC "-//W3C//DTD SVG 1.1//EN" "http://www.w3.org/Graphics/SVG/1.1/DTD/svg11.dtd"><svg t="1763030391553" class="icon" viewBox="0 0 1024 1024" version="1.1" xmlns="http://www.w3.org/2000/svg" p-id="11588" xmlns:xlink="http://www.w3.org/1999/xlink" width="200" height="200"><path d="M865.792 874.642286c-195.072 197.12-514.194286 199.168-713.289143 4.022857l-4.096-4.022857a518.948571 518.948571 0 0 1 0-725.577143c195.145143-197.046857 514.194286-199.094857 713.362286-4.022857l4.022857 4.096c197.12 203.190857 197.12 524.288 0 725.504z m-42.642286-680.813715C652.434286 21.065143 372.004571 17.042286 199.241143 189.732571c-2.048 0-4.096 2.048-6.070857 4.096a451.364571 451.364571 0 0 0 0 636.050286c170.642286 174.811429 451.145143 176.859429 623.908571 6.144l6.070857-6.144c174.811429-174.738286 174.811429-459.264 0-636.050286z m-109.714285 457.216H430.811429v69.12l-156.525715-128h439.003429c8.118857 0 16.310857 1.974857 20.333714 8.045715a29.476571 29.476571 0 0 1 0 42.715428c-6.070857 4.096-14.189714 8.118857-20.333714 8.118857z m-430.811429-225.572571a29.476571 29.476571 0 0 1 0-42.642286 26.112 26.112 0 0 1 20.260571-8.118857h282.477715v-69.12l156.525714 128H304.859429a30.573714 30.573714 0 0 1-22.381715-8.045714z" fill="#ffffff" p-id="11589"></path></svg>