<?xml version="1.0" standalone="no"?><!DOCTYPE svg PUBLIC "-//W3C//DTD SVG 1.1//EN" "http://www.w3.org/Graphics/SVG/1.1/DTD/svg11.dtd"><svg t="1763030423235" class="icon" viewBox="0 0 1024 1024" version="1.1" xmlns="http://www.w3.org/2000/svg" p-id="12625" xmlns:xlink="http://www.w3.org/1999/xlink" width="200" height="200"><path d="M874.569143 874.788571c-197.193143 197.193143-519.68 199.241143-721.042286 4.096l-4.096-4.022857a515.218286 515.218286 0 0 1 0-725.723428C346.697143-47.981714 669.110857-50.029714 870.473143 145.115429l4.096 4.022857c199.241143 203.337143 199.241143 524.434286 0 725.723428z m-43.154286-680.96C658.870857 21.138286 375.369143 17.115429 200.777143 189.878857c-2.048 0-4.096 2.048-6.144 4.096a448.146286 448.146286 0 0 0 0 636.196572c172.617143 174.811429 456.045714 176.859429 630.637714 6.144l6.144-6.144c176.64-174.811429 176.64-459.337143 0-636.196572z" fill="#ffffff" p-id="12626"></path><path d="M685.933714 512L567.222857 629.248h71.460572a175.104 175.104 0 0 1-151.625143 87.625143c-43.958857 0-84.626286-16.384-115.346286-43.812572L292.571429 717.970286A260.315429 260.315429 0 0 0 487.058286 804.571429c114.249143 0 212.041143-73.435429 248.32-175.323429H804.571429L685.933714 512zM384.950857 394.752a174.665143 174.665143 0 0 1 151.332572-87.625143c44.909714 0 85.577143 17.554286 116.224 44.909714L731.428571 307.126857A261.046857 261.046857 0 0 0 536.283429 219.428571a263.68 263.68 0 0 0-247.808 175.323429H219.428571L337.846857 512l118.418286-117.248h-71.314286z" fill="#ffffff" p-id="12627"></path></svg>